<?xml version="1.0" encoding="UTF-8" standalone="no"?>
<!-- Created with Inkscape (http://www.inkscape.org/) -->

<svg
   width="43.281216mm"
   height="40.747204mm"
   viewBox="0 0 43.281216 40.747204"
   version="1.1"
   id="svg5"
   inkscape:version="1.1 (c68e22c387, 2021-05-23)"
   sodipodi:docname="중앙대.svg"
   xmlns:inkscape="http://www.inkscape.org/namespaces/inkscape"
   xmlns:sodipodi="http://sodipodi.sourceforge.net/DTD/sodipodi-0.dtd"
   xmlns="http://www.w3.org/2000/svg"
   xmlns:svg="http://www.w3.org/2000/svg">
  <sodipodi:namedview
     id="namedview7"
     pagecolor="#ffffff"
     bordercolor="#666666"
     borderopacity="1.0"
     inkscape:pageshadow="2"
     inkscape:pageopacity="0.0"
     inkscape:pagecheckerboard="0"
     inkscape:document-units="mm"
     showgrid="false"
     lock-margins="true"
     fit-margin-top="1"
     fit-margin-left="1"
     fit-margin-right="1"
     fit-margin-bottom="1"
     inkscape:zoom="3.7828493"
     inkscape:cx="118.6936"
     inkscape:cy="101.90731"
     inkscape:window-width="2400"
     inkscape:window-height="1261"
     inkscape:window-x="-9"
     inkscape:window-y="-9"
     inkscape:window-maximized="1"
     inkscape:current-layer="layer1" />
  <defs
     id="defs2" />
  <g
     inkscape:label="레이어 1"
     inkscape:groupmode="layer"
     id="layer1"
     transform="translate(-72.421734,-108.8699)">
    <path
       d="m 81.078892,139.79556 -2.053872,2.20874 c -0.128764,0.13935 -0.142875,0.18662 -0.07373,0.25118 0.07303,0.0681 0.115711,0.0547 0.250472,-0.0868 l 2.054225,-2.2091 0.420512,0.39123 -1.967089,2.11526 -0.109714,0.11818 c -0.06138,0.0653 -0.127,0.11853 -0.193675,0.16333 -0.241653,0.1711 -0.530225,0.13124 -0.8001,-0.12029 -0.175331,-0.16299 -0.265995,-0.35313 -0.259997,-0.53093 0.0049,-0.0868 0.03387,-0.17498 0.08149,-0.25894 0.04092,-0.0688 0.08996,-0.13829 0.150284,-0.20285 l 0.110066,-0.11959 1.967089,-2.1149 z"
       style="fill:#798086;fill-opacity:1;fill-rule:nonzero;stroke:none;stroke-width:0.352778"
       id="path615" />
    <path
       d="m 83.114632,141.70264 0.513644,0.3242 -0.737658,1.76989 1.009297,-1.59808 0.443442,0.2801 -1.986139,3.14431 -0.508705,-0.32138 0.73413,-1.7646 -1.006122,1.59315 -0.448381,-0.28328 z"
       style="fill:#798086;fill-opacity:1;fill-rule:nonzero;stroke:none;stroke-width:0.352778"
       id="path619" />
    <path
       d="m 86.110209,143.51334 0.503767,0.26494 -1.730375,3.29353 -0.505178,-0.26705 z"
       style="fill:#798086;fill-opacity:1;fill-rule:nonzero;stroke:none;stroke-width:0.352778"
       id="path623" />
    <path
       d="m 88.178122,144.45244 0.544689,0.14287 -0.385939,2.34915 0.783167,-2.24543 0.544689,0.14288 -1.343731,3.4932 -0.667808,-0.17533 z"
       style="fill:#798086;fill-opacity:1;fill-rule:nonzero;stroke:none;stroke-width:0.352778"
       id="path627" />
    <path
       d="m 91.600243,144.892 1.076678,0.005 -7.06e-4,0.50765 -0.507647,-0.002 -0.0056,1.07103 0.508,0.002 -0.0032,0.50129 -0.508353,-0.002 -0.0028,1.13277 0.506236,0.001 -0.0014,0.50836 -1.076678,-0.005 z"
       style="fill:#798086;fill-opacity:1;fill-rule:nonzero;stroke:none;stroke-width:0.352778"
       id="path631" />
    <path
       d="m 95.750285,148.42588 0.558447,-0.11218 -0.313266,-1.55787 c 0.186619,-0.0378 0.231422,-0.0127 0.26423,0.15699 l 0.202847,1.01176 c 0.03598,0.17463 0.06773,0.24836 0.129117,0.33197 l 0.547511,-0.10901 c -0.06632,-0.10583 -0.08431,-0.1651 -0.120297,-0.34114 l -0.182386,-0.91263 c -0.04516,-0.22896 -0.117475,-0.35701 -0.242711,-0.41205 -0.04939,-0.0236 -0.07338,-0.03 -0.161925,-0.0466 0.153105,-0.11642 0.200025,-0.19368 0.206022,-0.33761 0.0021,-0.10196 -0.01376,-0.26917 -0.03951,-0.39088 l -0.08431,-0.42545 c -0.07161,-0.35066 -0.147461,-0.50553 -0.277989,-0.59267 -0.143581,-0.0857 -0.271639,-0.0995 -0.554567,-0.0427 l -0.661458,0.13264 z m -0.07373,-3.26284 c 0.186973,-0.0353 0.232481,-0.005 0.266348,0.16369 l 0.138289,0.68897 c 0.03316,0.17004 0.0025,0.21555 -0.182739,0.25294 z"
       style="fill:#798086;fill-opacity:1;fill-rule:nonzero;stroke:none;stroke-width:0.352778"
       id="path635" />
    <path
       d="m 99.996353,144.81777 0.385587,0.11783 c 0.32067,0.0928 0.42827,0.19579 0.57644,0.51505 l 0.18027,0.39441 0.0688,0.14852 c 0.037,0.0808 0.0624,0.16086 0.0801,0.23883 0.0663,0.28116 -0.0843,0.5401 -0.40675,0.69003 -0.20285,0.0942 -0.41946,0.10654 -0.57609,0.0321 -0.0808,-0.0296 -0.1531,-0.0942 -0.21414,-0.1725 -0.048,-0.0642 -0.0878,-0.13759 -0.129818,-0.2159 l -0.06738,-0.14605 -0.224014,-0.48719 0.517172,-0.23671 0.27799,0.60254 c 0.0258,0.0554 0.042,0.0907 0.0582,0.1136 0.0324,0.0586 0.0843,0.0772 0.14499,0.049 0.0907,-0.0416 0.0924,-0.0914 0.0141,-0.26388 l -0.18732,-0.40569 c -0.0928,-0.20144 -0.13582,-0.24271 -0.34008,-0.29775 l -0.386294,-0.1217 c -0.334434,-0.0977 -0.443089,-0.18768 -0.579261,-0.48296 l -0.156281,-0.33937 -0.06809,-0.14675 c -0.03175,-0.0833 -0.06138,-0.16228 -0.07832,-0.23954 -0.06421,-0.28469 0.0889,-0.53904 0.403578,-0.68298 0.202495,-0.0938 0.416278,-0.10654 0.572558,-0.036 0.07796,0.0374 0.1531,0.0942 0.20778,0.17321 0.078,0.10019 0.0878,0.12065 0.19826,0.36372 l 0.19015,0.41063 -0.502703,0.22931 -0.242359,-0.52635 c -0.07867,-0.17145 -0.117475,-0.20249 -0.208139,-0.16051 -0.08608,0.0392 -0.08784,0.0896 -0.0092,0.26105 l 0.158045,0.34467 c 0.08431,0.18203 0.121355,0.20814 0.342194,0.27728"
       style="fill:#798086;fill-opacity:1;fill-rule:nonzero;stroke:none;stroke-width:0.352778"
       id="path639" />
    <path
       d="m 101.9476,142.09059 0.4632,-0.33126 2.16923,3.02048 -0.46144,0.33232 z"
       style="fill:#798086;fill-opacity:1;fill-rule:nonzero;stroke:none;stroke-width:0.352778"
       id="path643" />
    <path
       d="m 104.71239,140.77466 -0.26388,0.28681 -0.37359,-0.34361 0.91581,-0.99166 0.37359,0.34326 -0.27446,0.29492 2.36255,2.1777 -0.37853,0.40957 z"
       style="fill:#798086;fill-opacity:1;fill-rule:nonzero;stroke:none;stroke-width:0.352778"
       id="path647" />
    <path
       d="m 106.26691,137.65811 1.10172,0.43886 -0.86889,-0.80504 0.30621,-0.48049 1.71098,1.66653 1.16487,0.74189 -0.3115,0.48859 -1.17899,-0.75071 -2.23943,-0.80504 z"
       style="fill:#798086;fill-opacity:1;fill-rule:nonzero;stroke:none;stroke-width:0.352778"
       id="path651" />
    <path
       d="m 75.223275,135.45226 0.08819,0.24059 -0.387702,0.14217 c -0.127,-0.18415 -0.281164,-0.23424 -0.551039,-0.18838 l -0.156986,-0.42968 3.488266,-1.28623 0.198261,0.53375 z"
       style="fill:#798086;fill-opacity:1;fill-rule:nonzero;stroke:none;stroke-width:0.352778"
       id="path655" />
    <path
       d="m 76.006653,131.95546 0.355953,-0.0116 c 0.274461,-0.007 0.291041,-0.008 0.412044,-0.0395 0.09384,-0.0247 0.182386,-0.067 0.246945,-0.13018 0.12453,-0.11571 0.197555,-0.31291 0.1905,-0.5461 -0.01199,-0.36301 -0.190148,-0.60289 -0.477309,-0.65052 -0.07832,-0.0145 -0.161219,-0.0233 -0.250472,-0.0205 l -0.16263,0.005 -2.057753,0.0603 -0.160867,0.005 c -0.0889,0.003 -0.17145,0.0166 -0.249767,0.0363 -0.09349,0.025 -0.17533,0.0663 -0.2413,0.12417 -0.131233,0.11959 -0.196497,0.31821 -0.189794,0.55774 0.0095,0.36689 0.179917,0.60255 0.469547,0.65476 0.07937,0.0152 0.164395,0.0243 0.253295,0.0208 l 0.160866,-0.005 0.930275,-0.0275 c 0.357717,-0.01 0.53587,-0.19438 0.52705,-0.5334 -0.0035,-0.11818 -0.02434,-0.20179 -0.08255,-0.29422 l 0.785636,-0.024 c 0.124178,-0.002 0.157339,-0.003 0.185914,0.0131 0.03351,0.0212 0.05115,0.054 0.05292,0.0981 0.0025,0.0942 -0.04163,0.12347 -0.230364,0.13017 l -0.485069,0.0138 z m -1.852436,-0.74895 0.862894,-0.0261 c 0.201084,-0.006 0.242006,0.0102 0.244828,0.11006 0.0014,0.0677 -0.03634,0.1076 -0.102658,0.12065 -0.03316,10e-4 -0.06632,0.007 -0.134761,0.008 l -0.8636,0.0261 c -0.117475,0.004 -0.155928,-3.5e-4 -0.184503,-0.0159 -0.02822,-0.0215 -0.05151,-0.0596 -0.05256,-0.0984 -0.0028,-0.0959 0.04163,-0.11888 0.230364,-0.12453"
       style="fill:#798086;fill-opacity:1;fill-rule:nonzero;stroke:none;stroke-width:0.352778"
       id="path659" />
    <path
       d="m 74.265166,127.56447 -0.0381,0.25294 -0.409222,-0.0624 c -0.02152,-0.2226 -0.132997,-0.34078 -0.390878,-0.43145 l 0.06914,-0.45085 3.676298,0.55598 -0.08431,0.56268 z"
       style="fill:#798086;fill-opacity:1;fill-rule:nonzero;stroke:none;stroke-width:0.352778"
       id="path663" />
    <path
       d="m 75.515975,123.54619 -0.599017,-0.1965 c -0.180269,-0.0586 -0.2159,-0.0935 -0.183797,-0.18803 0.02928,-0.09 0.07867,-0.0974 0.258939,-0.0388 l 0.599722,0.19614 c 0.18415,0.0603 0.214842,0.0931 0.184856,0.18309 -0.03105,0.0949 -0.07444,0.10372 -0.260703,0.0441 m 0.358775,0.39299 c 0.02611,0.18945 0.07373,0.27482 0.200731,0.34114 0.05433,0.0296 0.1143,0.061 0.175683,0.0868 0.0949,0.036 0.140405,0.0568 0.145697,0.0582 l 0.423686,0.13829 0.154517,0.0515 c 0.08431,0.0275 0.167569,0.0427 0.246944,0.0508 0.09631,0.008 0.194381,-10e-4 0.269875,-0.0353 0.163336,-0.0699 0.297745,-0.23001 0.37077,-0.45473 0.110419,-0.33761 0.02716,-0.62407 -0.229306,-0.77153 -0.108303,-0.0667 -0.129116,-0.0734 -0.383822,-0.15592 l -0.423333,-0.13688 c -0.02152,-0.007 -0.07126,-0.0169 -0.1524,-0.0374 -0.0829,-0.0159 -0.148873,-0.0328 -0.195086,-0.0363 -0.07197,-0.012 -0.145345,-7.1e-4 -0.209198,0.0314 -0.05821,0.0339 -0.08079,0.0504 -0.151694,0.12877 -0.02293,-0.18521 -0.06703,-0.26423 -0.191558,-0.33338 -0.0829,-0.0497 -0.245181,-0.12629 -0.331259,-0.15628 l -0.301978,-0.0977 c -0.254,-0.0822 -0.275519,-0.0889 -0.40005,-0.10054 -0.09631,-0.0127 -0.189088,0.004 -0.269522,0.0356 -0.163689,0.0695 -0.293864,0.23178 -0.366183,0.45367 -0.111125,0.34008 -0.02787,0.62654 0.223661,0.77223 0.06844,0.0395 0.145344,0.0759 0.230011,0.10337 l 0.153106,0.0497 0.302683,0.10019 c 0.216958,0.0702 0.439561,0.09 0.536575,0.0451 0.06703,-0.025 0.09313,-0.0519 0.17145,-0.13088 m 1.243189,0.13018 -0.721783,-0.23566 c -0.179564,-0.0589 -0.214489,-0.0935 -0.18415,-0.19014 0.02893,-0.0907 0.07796,-0.0981 0.259291,-0.0381 l 0.72002,0.23424 c 0.180622,0.0582 0.216252,0.0953 0.187325,0.18556 -0.0314,0.0949 -0.08079,0.10231 -0.260703,0.0441"
       style="fill:#798086;fill-opacity:1;fill-rule:nonzero;stroke:none;stroke-width:0.352778"
       id="path667" />
    <path
       d="m 92.913599,111.19011 0.0011,-0.58526 c 0,-0.0607 0,-0.0945 -0.0053,-0.1277 -0.0056,-0.0663 -0.05045,-0.10584 -0.112184,-0.10584 -0.100189,0 -0.122061,0.0441 -0.122414,0.23319 l -0.0021,2.31457 c -7.06e-4,0.19015 0.02152,0.2339 0.121355,0.2339 0.0956,3.5e-4 0.117475,-0.0381 0.117828,-0.23495 l 7.06e-4,-0.72955 h -0.110773 l -3.52e-4,-0.508 0.680861,0.002 -0.0028,1.94099 -0.306564,-3.5e-4 -0.0381,-0.14676 c -0.07867,0.12982 -0.196145,0.18486 -0.380648,0.1845 -0.200025,0 -0.406047,-0.0836 -0.512938,-0.21202 -0.06103,-0.061 -0.09913,-0.1524 -0.121356,-0.24659 -0.01658,-0.078 -0.02293,-0.16122 -0.02858,-0.25012 l 7.06e-4,-0.16298 0.0025,-2.05634 7.06e-4,-0.16263 c 0.0056,-0.0885 0.01164,-0.17216 0.02822,-0.24977 0.06209,-0.2854 0.306916,-0.4512 0.663928,-0.4505 0.234244,-3.5e-4 0.434975,0.073 0.545747,0.20638 0.06103,0.0663 0.101247,0.15028 0.123119,0.24412 0.02187,0.12312 0.02752,0.14605 0.02681,0.41346 l -7.05e-4,0.4572 z"
       style="fill:#798086;fill-opacity:1;fill-rule:nonzero;stroke:none;stroke-width:0.352778"
       id="path671" />
    <path
       d="m 84.147883,116.19409 -0.462492,0.33196 -0.92463,-1.27952 -0.189795,0.13758 0.924984,1.27988 -0.462492,0.33267 -2.176639,-3.01554 0.460375,-0.33338 0.960261,1.32962 0.189795,-0.13688 -0.95885,-1.32785 0.459316,-0.33408 z"
       style="fill:#798086;fill-opacity:1;fill-rule:nonzero;stroke:none;stroke-width:0.352778"
       id="path675" />
    <path
       d="m 89.900383,113.82085 -0.597253,0.11571 -0.675922,-1.79599 0.358422,1.85702 -0.514703,0.0995 -0.70485,-3.65195 0.592314,-0.11395 0.674159,1.78788 -0.357011,-1.84891 0.519994,-0.10054 z"
       style="fill:#798086;fill-opacity:1;fill-rule:nonzero;stroke:none;stroke-width:0.352778"
       id="path679" />
    <path
       d="m 101.45258,116.00821 -0.51964,-0.31644 0.70696,-1.78294 -0.98213,1.61431 -0.44803,-0.27234 1.93464,-3.17606 0.5147,0.31362 -0.70379,1.77764 0.98143,-1.61007 0.45049,0.27552 z"
       style="fill:#798086;fill-opacity:1;fill-rule:nonzero;stroke:none;stroke-width:0.352778"
       id="path683" />
    <path
       d="m 81.147931,117.56876 0.115711,0.11148 c 0.05997,0.0667 0.116064,0.12876 0.160161,0.19438 0.167922,0.24624 0.118181,0.53869 -0.135114,0.79939 -0.165452,0.17286 -0.359833,0.26282 -0.535516,0.25012 -0.09031,-0.002 -0.177448,-0.0325 -0.260703,-0.0818 -0.06738,-0.042 -0.131939,-0.096 -0.201436,-0.15381 l -0.115711,-0.11254 -1.480961,-1.42875 -0.115711,-0.11148 c -0.05997,-0.0663 -0.117475,-0.12876 -0.162984,-0.19508 -0.1651,-0.24518 -0.111125,-0.53411 0.141464,-0.79481 0.166158,-0.17286 0.356658,-0.26635 0.531283,-0.25365 0.09102,0.002 0.178153,0.0321 0.261409,0.0815 0.06703,0.0416 0.13088,0.0956 0.198966,0.15381 l 0.118181,0.11289 0.425803,0.40923 -0.403225,0.41804 -0.517878,-0.49954 c -0.04375,-0.0427 -0.06773,-0.0656 -0.0956,-0.0847 -0.05292,-0.0423 -0.113242,-0.0374 -0.155222,0.007 -0.0695,0.0716 -0.05292,0.11994 0.08396,0.25082 l 1.665464,1.60691 c 0.136172,0.13123 0.182739,0.14605 0.254353,0.0741 0.06632,-0.0677 0.05398,-0.11148 -0.08855,-0.2473 l -0.553155,-0.53445 0.403225,-0.41734 z"
       style="fill:#798086;fill-opacity:1;fill-rule:nonzero;stroke:none;stroke-width:0.352778"
       id="path687" />
    <path
       d="m 84.533081,111.65158 1.211792,2.76331 c 0.07585,0.17321 0.113947,0.20461 0.200025,0.16686 0.09278,-0.0409 0.09737,-0.0854 0.0194,-0.26317 l -1.211438,-2.76331 0.526697,-0.22966 1.158875,2.64513 0.06491,0.14746 c 0.03598,0.0822 0.06033,0.16404 0.07655,0.24165 0.05891,0.28999 -0.09313,0.53975 -0.430389,0.68651 -0.219428,0.0963 -0.429684,0.10407 -0.589845,0.0289 -0.07796,-0.0395 -0.147814,-0.10125 -0.206375,-0.17886 -0.04621,-0.0642 -0.08961,-0.13582 -0.125236,-0.21731 l -0.06632,-0.14923 -1.158875,-2.64512 z"
       style="fill:#798086;fill-opacity:1;fill-rule:nonzero;stroke:none;stroke-width:0.352778"
       id="path691" />
    <path
       d="m 97.29845,114.02556 0.531283,0.18944 0.347486,-0.7754 0.305506,0.10865 -0.207786,0.82691 0.536222,0.1905 0.833967,-3.65231 -0.729897,-0.25999 z m 1.075972,-1.03646 0.555978,-1.23966 -0.330906,1.32045 z"
       style="fill:#798086;fill-opacity:1;fill-rule:nonzero;stroke:none;stroke-width:0.352778"
       id="path695" />
    <path
       d="m 104.93009,115.70309 0.38806,-0.43744 c 0.0406,-0.0459 0.0624,-0.0713 0.0808,-0.10019 0.0402,-0.0536 0.0328,-0.11219 -0.013,-0.15276 -0.0741,-0.0667 -0.1203,-0.0483 -0.24589,0.0924 l -1.54058,1.72897 c -0.12559,0.14075 -0.13864,0.18944 -0.0642,0.25611 0.0698,0.0628 0.11359,0.0487 0.24447,-0.0974 l 0.48542,-0.54505 -0.084,-0.0737 0.33867,-0.37959 0.50729,0.45297 -1.29046,1.44886 -0.23036,-0.20426 0.067,-0.13405 c -0.14253,0.0437 -0.26706,0.008 -0.40323,-0.11501 -0.15169,-0.13335 -0.24976,-0.33338 -0.24341,-0.49953 -0.005,-0.0868 0.0254,-0.17886 0.0713,-0.26494 0.0399,-0.0695 0.091,-0.13511 0.14605,-0.20567 l 0.109,-0.121 1.36914,-1.53635 0.10689,-0.1203 c 0.0635,-0.0621 0.12276,-0.12241 0.18697,-0.16933 0.23671,-0.17145 0.52917,-0.13335 0.79692,0.10442 0.17392,0.15628 0.27517,0.3429 0.26988,0.51788 0.002,0.0903 -0.0247,0.17921 -0.0723,0.26423 -0.0649,0.10654 -0.0751,0.12771 -0.25224,0.32738 l -0.30409,0.34113 z"
       style="fill:#798086;fill-opacity:1;fill-rule:nonzero;stroke:none;stroke-width:0.352778"
       id="path699" />
    <path
       d="m 78.185233,120.15758 c 0,0.22013 -0.178506,0.39829 -0.398286,0.39829 -0.220133,0 -0.398639,-0.17816 -0.398639,-0.39829 0,-0.22013 0.178506,-0.39829 0.398639,-0.39829 0.21978,0 0.398286,0.17816 0.398286,0.39829"
       style="fill:#798086;fill-opacity:1;fill-rule:nonzero;stroke:none;stroke-width:0.352778"
       id="path703" />
    <path
       d="m 78.185233,138.48964 c 0,0.22013 -0.178506,0.39829 -0.398286,0.39829 -0.220133,0 -0.398639,-0.17816 -0.398639,-0.39829 0,-0.22013 0.178506,-0.39829 0.398639,-0.39829 0.21978,0 0.398286,0.17816 0.398286,0.39829"
       style="fill:#798086;fill-opacity:1;fill-rule:nonzero;stroke:none;stroke-width:0.352778"
       id="path707" />
    <path
       d="m 95.703366,112.05569 -0.549628,-0.0928 0.07655,-0.46179 1.315508,0.23178 -0.07726,0.46249 z"
       style="fill:#798086;fill-opacity:1;fill-rule:nonzero;stroke:none;stroke-width:0.352778"
       id="path711" />
    <path
       d="m 94.069546,128.43971 c 0.0014,-0.003 0.842786,-1.11337 0.940153,-1.2319 -0.09243,0.0229 -0.04304,-0.0723 -0.03387,-0.14746 0.07726,-0.0159 0.658636,-0.88195 0.860778,-1.05692 l 0.0071,-0.0533 c 0.0092,-0.002 0.158045,0.47201 0.25012,0.56868 -0.130528,0.35701 -0.262467,0.71719 -0.394053,1.07209 -0.05891,0.29809 -0.0035,0.59196 -0.09419,0.87771 -0.09243,0.29351 -0.449791,0.65369 -0.767997,0.74365 -0.161219,0.049 -0.287514,0.0462 -0.440619,0.12101 -0.306211,0.18908 -0.610306,0.381 -0.9144,0.57291 -0.412397,-0.19015 0.535869,-1.09079 0.587022,-1.4665 m 3.770842,-0.88159 -0.0053,0.0392 c 0.05644,-0.004 0.0441,-0.0148 0.03634,0.0384 l -0.03634,-0.0384 c -0.04198,0.003 -0.02646,-0.01 0.0053,-0.0392 m -10.651067,7.23865 c 0.09066,-0.0438 0.182739,-0.0864 0.27305,-0.13124 0.324556,-0.0215 0.516114,-0.16051 0.796572,-0.26352 0.08149,-0.03 0.166511,-0.0575 0.248709,-0.085 l 0.04128,-0.002 c -0.08961,0.65017 -0.551039,1.2947 -0.274461,1.90359 0.0568,0.0854 0.115711,0.17251 0.170744,0.26035 0.08961,0.0317 0.178506,0.0646 0.270933,0.0967 0.100542,0.049 0.176742,0.14711 0.282575,0.18733 0.06491,-0.004 0.06844,0.0385 0.11042,0.0645 0.186619,0.12277 0.329847,0.048 0.51823,-0.10477 l 0.0056,-0.0413 c 0.167216,-0.0102 0.241653,0.0512 0.419805,-0.0272 0.01729,-0.13194 -0.02858,-0.21484 0.0092,-0.36054 -0.0635,0.004 0.13723,-0.11571 0.189088,-0.1711 0.0762,-0.004 -0.0011,-0.14605 -0.01305,-0.20002 -0.05609,0.004 -0.0448,0.0166 -0.03775,-0.0378 l 0.0568,-0.0201 c 0.130175,-0.22472 0.262114,-0.45226 0.391583,-0.67592 0.144639,-0.17815 0.290689,-0.35348 0.437444,-0.52917 0.03951,-0.0882 0.04516,-0.15522 0.02469,-0.23283 0.258586,-0.0162 0.340078,-0.61101 0.314678,-0.77858 0.09384,-0.005 0.529872,-0.46179 0.667808,-0.5521 0.13723,-0.0621 0.277989,-0.12417 0.416278,-0.18838 l 0.01764,-0.0113 c 0.06773,-0.004 0.04833,-0.10513 0.06562,-0.16369 0.0092,-0.0649 -0.01905,-0.0377 -0.07937,-0.0349 l 0.0056,-0.0385 c 0.08149,0.005 0.161572,0.012 0.241652,0.0194 0.178153,-0.0631 0.354542,-0.12594 0.529873,-0.18944 0.0074,-0.0547 0.09454,-0.11289 0.06703,-0.14147 0.121709,-0.0106 0.245887,-0.0194 0.3683,-0.0286 0.225425,-0.0501 0.862189,-0.35208 1.033287,-0.52741 0.02716,-0.002 0.05574,-0.003 0.08255,-0.005 -0.0063,0.0554 -0.01799,0.0416 0.03634,0.0381 0.0092,-0.0631 0.09066,-0.0681 0.137583,-0.0889 0.0078,-0.0522 -0.0064,-0.0392 0.04798,-0.0423 l -0.006,0.0402 c 0.09243,-0.007 0.04833,0.85583 0.189794,1.02623 l 0.04163,-0.003 c -0.02187,0.0533 -0.04163,0.10866 -0.0635,0.16405 -0.0092,3.5e-4 -0.0014,0.16016 -0.03422,0.24271 l 0.04269,-0.002 c -0.0194,0.13582 0.401462,-0.0483 0.466725,-0.0705 l 0.0063,-0.0413 c -0.0014,0.0289 -0.0025,0.0593 -0.0025,0.0882 -0.02646,0.12523 -0.10795,0.21872 -0.210256,0.30092 -0.478366,0.38311 -0.262113,0.90805 -0.205669,1.32291 0.0085,0.13759 0.01517,0.27834 0.02293,0.42087 0.03669,0.084 0.07232,0.17004 0.108302,0.25541 -0.01376,0.0868 -0.02646,0.1785 -0.03845,0.26811 -0.01482,0.20673 0.0194,0.3877 0.08678,0.55562 l -0.0067,0.0395 c 0.04339,-0.003 0.136172,-0.25718 0.297392,-0.34008 l -0.01164,0.0279 c -0.05045,0.10724 -0.101247,0.21272 -0.14993,0.3175 -0.07655,0.27375 -0.03634,0.75529 0.154163,0.89605 -0.02787,0.20214 -0.06809,0.3616 0.147462,0.42792 0.006,-0.0406 0.01164,-0.0804 0.01764,-0.12065 0.01305,-0.10019 0.109009,-0.20285 0.155928,-0.29139 0.04692,-0.12489 0.09525,-0.24483 0.143228,-0.36724 0.08996,-0.005 -0.06703,-0.14429 -0.09737,-0.19156 -0.05927,0.004 -0.01129,-0.13547 -0.01411,-0.20038 0.05433,-0.004 0.111478,-0.007 0.168275,-0.0106 0.0381,-0.27517 -0.02646,-0.47837 -0.156986,-0.66852 -0.05927,0.004 0.01764,-0.0275 0.04692,-0.043 l 0.0056,-0.0406 c 0.06103,-0.003 0.01305,0.008 0.03634,0.0388 l -0.0053,0.0392 c 0.05398,-0.004 0.04833,-0.003 0.0635,-0.0505 0.129117,-0.37218 0.268464,-0.74154 0.429331,-1.09961 0.06809,-0.004 0.04163,-0.0363 0.03951,-0.0861 0.01764,-0.13476 0.03598,-0.2667 0.05433,-0.39793 0.02893,-0.32385 0.02787,-0.70344 0.155222,-1.01071 -0.05115,0.003 -0.07126,-0.34501 -0.147108,-0.43003 0.0085,-0.0621 0.05468,-0.0857 0.100541,-0.12594 0.01693,-0.1203 0.03351,-0.24377 0.0501,-0.36372 0.0127,-0.0903 0.128764,-0.18873 0.201083,-0.25153 0.01799,-0.13652 -0.0067,-0.25047 0.01376,-0.40146 -0.06879,0.004 -0.0829,-0.0293 -0.113594,-0.0713 -0.05503,0.003 -0.04304,0.0155 -0.03598,-0.037 0.0829,-0.006 0.159808,-0.12383 0.188383,-0.18803 0.02999,-0.11818 0.06209,-0.2346 0.09243,-0.34996 0.246944,-0.50906 0.555978,-0.59514 1.017411,-0.85407 0.06809,-0.0494 0.134761,-0.097 0.201083,-0.145 0.01129,-0.0748 -0.09172,-0.0614 -0.154869,-0.0681 l 0.006,-0.0434 c 0.124178,-0.008 0.729544,-0.53623 0.823736,-0.66217 0.0321,-0.0822 0.06597,-0.16439 0.09843,-0.24518 0.100542,-0.0395 0.208139,0.01 0.277989,0.0317 l 0.0056,-0.0402 c 0.09137,-0.0459 0.18027,-0.0907 0.26917,-0.13935 0.0085,-0.0603 0.03245,-0.0416 0.09031,-0.0459 0.0095,-0.0646 -0.06209,-0.0589 -0.114653,-0.0723 0.01023,-0.0716 0.07902,-0.0677 0.136878,-0.0875 l 0.0056,-0.0402 c -0.03739,0.002 -0.0695,-10e-4 -0.07761,-0.0349 0.03246,-0.23919 0.171803,-0.25824 0.363003,-0.22543 0.004,-0.0275 0.23672,-0.37747 0.26565,-0.41416 0.0586,-0.004 0.0681,-0.11994 0.10548,-0.16792 -0.01,0.0705 0.0825,0.008 0.12735,-0.009 -0.0113,0.0776 0.10407,-0.085 0.14076,-0.12876 -0.0639,0.004 -0.0713,-0.0402 -0.11324,-0.072 l 0.005,-0.0406 c 0.0705,-0.0183 0.14393,-0.0349 0.21519,-0.0526 l 0.006,-0.0399 c 0.39264,-0.0265 0.60007,-0.30445 0.96661,-0.38347 0.012,-0.0864 0.0769,-0.12029 0.14746,-0.16968 0.006,-0.0392 0.0123,-0.0825 0.018,-0.12206 -0.03,10e-4 -0.0575,0.003 -0.0843,0.005 -0.01,0.0741 -0.13335,0.12735 -0.18944,0.17427 -0.0512,0.002 -0.13723,-0.0875 -0.19368,-0.10654 l 0.006,-0.043 c 0.15734,-0.0102 0.18521,-0.20744 0.35242,-0.14112 l 0.0416,-0.004 c 0.006,-0.0444 -0.005,-0.0519 -0.031,-0.0772 0.0155,-0.10019 -0.0155,-0.0487 -0.0243,-0.11713 0.009,-0.0589 -0.43039,0.12771 -0.51929,0.15276 0.009,-0.0646 0.0639,0.0342 0.0141,0.005 l 0.005,-0.0395 c 0.13088,-0.009 0.2032,-0.19508 0.26776,-0.28222 0.008,-0.0579 -0.0441,-0.0568 -0.0914,-0.0677 -0.25929,-0.0586 -1.16946,0.30938 -1.45097,0.41169 -0.2152,0.0755 -0.430036,0.15275 -0.644878,0.23213 -0.143933,0.078 -0.288219,0.15804 -0.430741,0.23812 -0.475545,0.21626 -0.969081,0.34996 -1.435453,0.58632 l 0.0056,-0.0402 c -0.04692,0.003 -0.04798,-0.007 -0.07726,-0.0346 0.02187,-0.15945 0.05009,-0.27834 -0.02787,-0.39899 0.02469,-0.0677 0.05221,-0.13617 0.0762,-0.20496 0.04551,-0.34925 0.09313,-0.69533 0.138641,-1.04599 -0.07126,0.004 0.02893,-0.0751 0.05927,-0.12347 0.07408,-0.005 0.01517,-0.0702 -3.53e-4,-0.11254 -0.132292,-0.33196 0.03457,-0.74083 0.0088,-1.12854 -0.01376,-0.22648 -0.115359,-0.34325 -0.0025,-0.5976 -0.06174,0.004 -0.04586,-0.0236 -0.0575,-0.0635 -0.102305,-0.32491 -0.242358,-0.20885 -0.515761,-0.30092 0.0042,-0.0254 0.0088,-0.0543 0.01164,-0.0797 0.05962,-0.004 0.132644,-0.0653 0.178505,-0.0907 0.02399,-0.16651 -0.263172,-0.27658 -0.369005,-0.33585 -0.0056,0.0438 -0.276578,0.0868 -0.342547,0.1143 -0.161925,0.072 -0.334786,0.13371 -0.516114,0.12277 -0.118886,-0.007 -0.223308,-0.0695 -0.365478,-0.037 -0.379236,0.0917 -1.202267,0.86995 -1.544108,1.17898 l 0.04374,-0.003 c -0.0099,0.0695 0.09596,0.0642 0.155222,0.0695 -0.0032,0.0261 -0.0071,0.054 -0.01129,0.0804 -0.05468,0.004 -0.03986,-0.01 -0.04692,0.0423 -0.112889,0.008 -0.385586,0.12101 -0.477661,0.20109 -0.185914,0.16898 -0.255764,0.44908 -0.408164,0.64523 -0.08749,0.11183 -0.265994,0.1404 -0.324203,0.28963 -7.05e-4,0.0342 -7.05e-4,0.0681 -0.0018,0.10336 l -0.0049,0.0399 c -0.410634,0.0264 -1.192037,1.93428 -1.590675,2.18052 -0.0056,0.0272 -0.0078,0.0533 -0.01199,0.0801 l -0.04127,0.002 c -0.0187,0.26741 -0.178153,0.37677 -0.288572,0.59408 -0.06491,0.13441 -0.08643,0.23848 -0.176389,0.35666 0.07091,-0.005 0.01835,0.037 -0.01094,0.0794 0.05927,-0.003 -0.03951,0.0974 -0.05644,0.16475 -0.05468,0.21696 -0.239184,0.36442 -0.339725,0.55809 -0.219428,0.42193 -0.456142,0.78564 -0.586317,1.25907 -0.248003,0.0162 -0.149578,0.30127 -0.05045,0.36477 l -0.006,0.0395 c -0.27305,0.0176 -0.303388,0.30339 -0.318205,0.50024 l -0.04092,0.002 c 0.0081,-0.06 -0.01834,-0.036 -0.06103,-0.0229 -0.356658,0.12135 -0.660753,0.21766 -0.959555,0.48965 -0.07691,0.005 7.05e-4,0.0519 0.03034,0.0769 l -0.0053,0.0406 c -0.26035,0.0173 -0.398286,0.0455 -0.649464,0.20496 -0.216606,0.14182 -0.493183,0.48295 -0.769761,0.44556 l -0.04339,0.004 -0.0063,0.0388 c -0.06773,0.005 -0.04339,0.0727 -0.05786,0.12382 -0.0095,0.0663 -0.163337,0.16334 -0.207434,0.2286 -0.06597,0.10125 -0.169333,0.16228 -0.24765,0.25894 -0.136525,0.17851 -0.261055,0.37747 -0.298802,0.59619 -0.02716,0.16581 0.529872,0.30198 0.684741,0.27447"
       style="fill:#2c71bc;fill-opacity:1;fill-rule:nonzero;stroke:none;stroke-width:0.352778"
       id="path715" />
    <path
       d="m 114.23129,126.40132 c -0.23283,-0.0141 -0.44132,0.14464 -0.62547,0.28504 l -0.17745,0.13194 -0.77047,0.45262 -0.73554,0.43003 c -0.42369,0.19862 -0.78176,0.33408 -1.12642,0.42898 l -0.23107,0.0847 c -0.0589,0.0282 -0.11395,0.0572 -0.21872,0.0815 l -0.0141,0.004 -0.005,0.009 -0.0402,-0.0275 -0.0399,-0.0314 c -0.11854,-0.0723 -0.15029,-0.25294 -0.15029,-0.46425 0,-0.13335 0.012,-0.27552 0.0244,-0.41064 0.0113,-0.13687 0.0233,-0.27128 0.0233,-0.3884 0,-0.0568 -0.006,-0.1069 -0.0131,-0.15523 0.14746,-0.0512 0.16933,-0.37676 0.18732,-0.67027 0.008,-0.12665 0.0155,-0.24589 0.0325,-0.29246 0.0282,-0.0713 0.1083,-0.13899 0.17921,-0.19826 l 0.0173,-0.0145 0.006,-0.0293 c 0,0 -0.007,-0.18098 -0.008,-0.20708 0.121,-0.13829 0.29492,-0.72249 0.29669,-0.72919 0.008,-0.0325 0.012,-0.0635 0.012,-0.0963 0,-0.0377 -0.007,-0.0716 -0.0131,-0.10584 0.0406,-0.0208 0.0572,-0.0681 0.0663,-0.0977 l 0.009,-0.0254 0.005,-0.0243 0.01,-0.004 0.0836,-0.0367 -0.0226,-0.0349 c 0.004,-0.01 0.0769,-0.1658 0.0921,-0.20108 l 0.0409,-0.0254 0.01,-0.0307 -0.0106,-0.0303 c 0.0526,-0.0296 0.0981,-0.0963 0.14005,-0.15664 l 0.055,-0.0727 0.17885,-0.17462 c 0.11501,-0.10972 0.22296,-0.21132 0.3175,-0.3422 l 0.091,-0.23142 0.0434,-0.11254 0.0586,-0.0762 c 0.0748,-0.0942 0.15875,-0.20073 0.15875,-0.33972 l -0.004,-0.0504 c -0.0303,-0.21343 -0.21766,-0.2928 -0.369,-0.35701 l -0.0321,-0.0138 0.006,-0.0409 -0.0476,-3.5e-4 -0.0307,-0.002 c -0.0483,-0.002 -0.0864,-0.005 -0.11465,-0.009 0.0469,-0.0557 0.0709,-0.1464 0.0854,-0.21096 0.0293,-0.007 0.0512,-0.0201 0.0702,-0.0406 l 0.0572,-0.0603 -0.096,-0.0155 -0.006,-0.0219 -0.0145,-0.0536 -0.0318,-7.1e-4 -0.13793,-0.008 -0.0497,0.13723 c -0.0388,-0.0109 -0.0684,-0.0325 -0.0953,-0.0861 l -0.0106,-0.0215 -0.043,-0.005 -0.003,-0.004 0.002,-0.005 0.006,-0.0349 -0.0674,-0.0282 0.0208,-0.0363 -0.061,-0.008 0.002,-0.0152 0.006,-0.0462 -0.0152,-0.0487 -0.0346,-0.0159 c -0.0102,-0.043 -0.042,-0.0684 -0.0621,-0.0801 l -0.01,-0.006 0.0106,-0.043 -0.049,-0.0152 c -0.0462,-0.003 -0.11466,-0.0286 -0.18768,-0.0557 -0.15205,-0.0568 -0.32385,-0.12065 -0.44803,-0.0466 -0.0579,0.0353 -0.0921,0.10407 -0.11289,0.19262 -0.0205,-0.008 -0.0413,-0.0134 -0.0631,-0.0289 l -0.0377,-0.0247 -0.009,-0.0363 -0.066,-0.0194 h -0.0646 l -0.007,0.0392 c -0.018,0.14958 -0.0459,0.18169 -0.15592,0.25683 l -0.10266,0.067 c 0,0 0.0582,0.006 0.0935,0.0102 l -0.01,0.0145 -0.0586,0.11042 c -0.16687,0.30938 -0.32526,0.62018 -0.32526,0.79304 0,0.0198 0.006,0.0353 0.0102,0.0522 -0.049,-0.003 -0.17216,-0.0109 -0.17216,-0.0109 l -0.005,0.042 c -0.0346,0.29139 -0.11677,0.39758 -0.25012,0.57538 l -0.11254,0.14993 -0.14181,0.26917 -0.0459,0.0878 c -0.10866,0.13864 -0.18592,0.30551 -0.26106,0.46884 -0.0759,0.16087 -0.14676,0.31327 -0.24871,0.44591 l -0.21131,0.22613 c -0.0801,0.10725 -0.15099,0.25295 -0.22472,0.40958 -0.0864,0.17956 -0.17674,0.36618 -0.27658,0.47837 l -0.0145,0.0109 -0.14041,0.10584 c -0.23707,0.22401 -0.55457,0.55774 -0.66252,0.90804 l -0.0402,0.008 -0.007,0.004 c -0.39265,0.25259 -0.74648,0.66499 -1.0594,1.02906 l -0.11994,0.13758 -0.16157,0.20073 -0.0441,0.0547 -0.17992,0.12912 c -0.0808,0.049 -0.16227,0.10019 -0.23989,0.17886 l -0.19332,0.25082 -0.0251,0.0325 c -0.0473,0.0459 -0.13476,0.0353 -0.22648,0.0261 -0.0854,-0.008 -0.17815,-0.0109 -0.25294,0.0346 0.0744,-0.57327 0.21026,-1.03752 0.46143,-1.57798 l 0.0402,-0.0254 0.0109,-0.0339 -0.01,-0.0409 -0.006,-0.0194 c -0.004,-0.0148 -0.005,-0.0328 -0.005,-0.0529 0,-0.21766 0.18133,-0.72249 0.28822,-0.95179 l 0.0141,-0.0307 -0.0275,-0.0162 0.009,-0.0159 0.0303,-0.0568 0.0328,-0.18204 0.0381,-0.22189 c 0.0508,-0.26953 0.16157,-0.77153 0.34219,-1.13489 l 0.055,0.004 -0.004,-0.054 -0.003,-0.0293 c -0.006,-0.0469 -0.01,-0.0949 -0.01,-0.14252 0,-0.17074 0.043,-0.34043 0.12312,-0.51153 l 0.06,0.004 -0.0176,-0.0861 c -0.0974,-0.36018 -0.4452,-0.92251 -0.97225,-0.92568 -0.65441,-0.004 -1.31869,1.64676 -1.43934,2.23872 -0.0346,0.006 -0.11641,0.0229 -0.11641,0.0229 l -0.0314,0.007 -0.004,0.0314 c -0.0159,0.13688 -0.0674,0.24907 -0.12065,0.36795 l -0.0751,0.18098 -0.21731,0.56232 -0.12242,0.30868 0.0483,0.0131 c 0,0 0.0572,0.0155 0.10689,0.0293 -0.0462,-0.002 -0.18344,-0.01 -0.18344,-0.01 l -0.005,0.0409 c -0.0127,0.1076 -0.0586,0.21379 -0.10265,0.31362 l -0.0639,0.16017 -0.0109,0.0607 -0.0483,0.29104 -0.0893,0.16863 -0.0459,0.091 c -0.0765,0.20073 -0.11006,0.39476 -0.14569,0.60113 l -0.0385,0.21555 -0.0318,0.15981 c -0.0324,0.15698 -0.0639,0.31256 -0.0639,0.46037 0,0.1524 0.0384,0.30163 0.14076,0.44062 l -0.001,0.009 -0.16969,-0.0466 -0.0173,0.11747 0.0328,0.0162 c 0,0 0.0423,0.0183 0.0705,0.0303 -0.007,0.0691 -0.0127,0.13758 -0.0127,0.2032 0,0.37006 0.11712,0.68968 0.35878,0.98707 l 0.0734,0.0861 c 0.073,0.0861 0.13053,0.15169 0.17216,0.27058 l 0.01,0.0279 0.48436,0.0286 0.002,-0.0205 c 0.0515,0.0198 0.29315,0.1136 0.29315,0.1136 l 0.0162,-0.002 0.24095,-0.0236 c 0.19755,-0.0109 0.41698,-0.0261 0.52987,-0.11501 0.009,7.1e-4 0.0229,0.002 0.0462,0.003 l -0.004,0.0307 -0.007,0.0822 h 0.0459 c 0.21555,0.0131 0.35243,-0.10759 0.48578,-0.22366 l 0.1584,-0.12982 0.005,-0.0187 0.002,-0.0353 c 0,-0.042 -0.0141,-0.0723 -0.0258,-0.10266 0.0314,-0.006 0.0695,-0.024 0.11994,-0.0529 l 0.0801,-0.0434 -0.004,-0.019 -0.0194,-0.0642 -0.0314,-0.0176 c 0.0797,-0.007 0.14957,-0.025 0.20708,-0.0473 0.0744,-0.0275 0.11536,-0.0709 0.15451,-0.11289 l 0.0889,-0.0811 0.20391,-0.1143 c 0.18344,-0.096 0.38876,-0.20637 0.50412,-0.39193 0.031,-0.008 0.0857,-0.0438 0.19967,-0.17815 l 0.008,-0.0106 0.003,-0.0282 c 0.03,-0.0169 0.0501,-0.0434 0.0603,-0.0656 l 0.0198,-0.0332 h 0.002 c 0.25541,-0.0684 0.4191,-0.33231 0.57785,-0.58455 0.10442,-0.17039 0.21343,-0.34396 0.33972,-0.44873 l 0.013,-0.0117 0.001,-0.012 0.036,0.002 0.005,-0.0448 0.007,-0.0533 -0.0254,-0.0254 -0.0233,-0.0113 c -0.0215,-0.0102 -0.0469,-0.025 -0.0645,-0.0427 0.12735,-0.0339 0.24271,-0.11994 0.28857,-0.23036 0.0152,-0.0349 0.0226,-0.072 0.0226,-0.10795 0,-0.0399 -0.0127,-0.0787 -0.0303,-0.11748 l 0.20461,-0.0187 c 0.0169,0.0307 0.0324,0.0734 0.0459,0.11782 0.0374,0.12348 0.0893,0.28046 0.22225,0.37289 -0.0212,-0.002 -0.0868,-0.006 -0.0868,-0.006 l -0.005,0.0363 -0.0353,-0.002 -0.005,0.0413 -0.004,0.0522 c 0,0.21555 0.15911,0.41346 0.32033,0.49424 l 0.005,0.002 -0.004,0.0233 -0.0148,0.007 -0.0102,0.0377 c 0,0.0487 0.0413,0.10972 0.0931,0.18733 0.054,0.0815 0.12453,0.19085 0.12453,0.26176 l -0.003,0.018 -0.0205,0.0222 -0.004,0.0197 c 0,0.0452 0.0716,0.12312 0.52282,0.45156 l 0.0501,0.0363 0.0977,0.11607 c 0.0342,0.048 0.0716,0.0935 0.12101,0.13229 -0.009,0.0226 -0.0251,0.0466 -0.0441,0.0681 l -0.0801,0.10443 0.0857,0.004 c 0.0459,0.003 0.15382,0.0787 0.24025,0.1397 0.0892,0.0628 0.17427,0.12277 0.24094,0.14641 l 0.0529,0.0187 0.0279,-0.23495 c 0.0515,0.002 0.2727,0.0162 0.2727,0.0162 l 0.0677,-0.0176 0.0215,-0.0649 c 0.0392,0.0205 0.0762,0.0469 0.11289,0.0801 l 0.18415,0.13794 0.003,-0.0783 0.001,-0.006 c 0.0864,-0.0159 0.16263,-0.0815 0.20143,-0.12311 0.0265,0.001 0.12277,0.004 0.12277,0.004 0.3556,0.0205 0.48084,-0.16122 0.63782,-0.38735 l 0.0614,-0.0878 0.0102,-0.0984 -0.0476,-3.5e-4 -0.0349,-0.002 -0.019,-0.0215 c -0.0272,-0.0159 -0.0547,7.1e-4 -0.0829,0.0183 l -0.037,-0.005 -3.5e-4,-0.004 c 0,-0.018 0.0123,-0.0681 0.0885,-0.19156 l 0.15381,0.0512 0.006,-0.0543 0.007,-0.0166 c 0.0247,-0.0113 0.0984,0.019 0.15487,0.0557 l 0.0169,0.0438 c 0.0247,0.0229 0.0571,0.0222 0.0878,0.0187 0.0106,0.0325 0.0275,0.0596 0.0455,0.0797 v 0.001 c 0,0.0201 0.004,0.0409 0.0176,0.0564 0.0205,0.0201 0.0466,0.018 0.066,0.0159 l 0.0614,-0.002 0.0102,-0.0406 0.006,-0.0406 -0.012,-0.0296 -0.0318,-0.0123 -0.006,-0.0282 0.01,-0.009 0.01,-0.0254 0.0801,0.005 v -10e-4 c 0.0289,0.004 0.0564,-0.0145 0.0776,-0.03 l 0.006,-0.004 0.16933,-0.0243 -0.004,-0.0811 0.0102,0.0106 0.002,0.0116 -0.002,0.0127 c 0.0102,-0.0166 0.0702,-0.0667 0.35771,-0.21378 l 0.0226,-0.0134 0.0681,0.004 0.003,-0.0416 0.0113,-0.0942 -0.0557,0.006 c 0,0 -0.16933,0.019 -0.19438,0.0222 l 0.007,-0.0593 7e-4,-0.012 c 0,-0.0275 -0.0113,-0.0448 -0.0219,-0.0557 -0.0257,-0.0279 -0.0674,-0.0328 -0.10971,-0.0328 l 0.003,-0.002 7.1e-4,-0.0162 c 0,0 0.006,-0.0469 0.01,-0.0794 0.16721,-0.0183 0.35419,-0.18556 0.44026,-0.30057 l 0.0536,0.004 0.0205,-0.16263 -0.0378,-0.002 0.01,-0.0399 0.0166,-0.006 0.0487,-0.0194 0.16898,-0.0776 c 0.21061,-0.0917 0.35066,-0.15981 0.38029,-0.21978 l 0.20109,-0.47202 -0.005,-0.006 c 0.0554,-0.0748 0.37535,-0.33372 0.47201,-0.3556 l 0.0307,-0.007 0.004,-0.031 3.6e-4,-0.012 c 0,-0.0656 -0.0547,-0.1464 -0.10443,-0.2166 0,0 -0.0176,-0.0265 -0.0303,-0.0462 0.0116,-0.0191 0.0275,-0.043 0.0519,-0.0822 0.0639,-0.10407 0.21449,-0.35172 0.26176,-0.38065 l 0.0183,-0.0109 0.0159,-0.14005 z"
       style="fill:#2c71bc;fill-opacity:1;fill-rule:nonzero;stroke:none;stroke-width:0.352778"
       id="path719" />
    <path
       d="m 114.16814,124.81837 h -6.69819 v -6.6996 h 6.69819 z m 0.26706,-7.23441 h -7.50006 v 7.76781 h 7.76781 v -7.76781 z"
       style="fill:#eb222c;fill-opacity:1;fill-rule:nonzero;stroke:none;stroke-width:0.352778"
       id="path721" />
    <path
       d="m 87.090473,123.98046 c -0.246592,-0.0617 -0.577144,-0.12312 -0.787753,-0.14993 l -0.01446,0.01 -0.08855,0.0656 -0.0021,0.009 c -0.03775,-0.004 -0.07091,0.003 -0.102305,0.0106 l 0.0018,-0.006 -0.03528,-0.007 -0.158044,-0.0272 c -0.0374,-0.006 -0.07902,0.0265 -0.119239,0.0582 l -0.02434,0.0173 -0.05539,-0.0737 -0.01517,0.0624 -0.006,0.0194 -0.01199,-0.002 c -0.0039,-0.0134 -0.02822,-0.0194 -0.11677,0.0709 -0.02117,-0.0102 -0.07479,-0.0378 -0.07479,-0.0378 l -0.02046,0.0258 c -0.01094,0.0123 -0.07444,0.036 -0.09843,0.0444 l -0.0021,0.001 -0.0039,-0.006 c -0.0085,-0.003 -0.02081,-0.005 -0.0388,0.0173 l -0.0374,-0.0148 -0.02928,-0.003 -0.01305,0.0159 -0.08079,0.11536 -0.0078,-0.001 0.0011,-0.0487 -0.09349,-0.0159 -0.02117,0.0688 -0.01658,-0.002 -0.0063,0.0148 -0.0762,-0.0406 -0.0085,0.0381 c -0.0021,0.008 -0.0187,0.0356 -0.131939,0.0744 l -0.01552,0.005 -0.0046,0.0152 c -0.0046,0.0155 -0.02787,0.031 -0.04798,0.0448 l -0.03916,0.0296 -0.0018,0.007 c -0.101248,-0.005 -0.199672,0.0363 -0.295275,0.0766 l -0.134056,0.0526 -0.006,0.0148 c -0.02611,0.0861 -0.06632,0.20814 -0.126294,0.26247 l -0.02399,-0.0286 0.01199,-0.0406 -0.03493,-0.005 c -0.04904,-0.009 -0.08714,0.0642 -0.114653,0.14217 l -3.52e-4,-0.0187 -0.0254,-0.002 -0.0049,-7.1e-4 0.0042,-0.0131 -0.03246,-0.0159 c -0.03175,-0.006 -0.05327,0.0109 -0.06914,0.0353 l -0.0046,-0.0452 -0.02364,-0.007 c -0.03563,-0.006 -0.117122,0.0282 -0.280106,0.1023 l -0.173919,0.0741 -0.0071,0.0148 c -0.01975,0.0653 -0.07161,0.11218 -0.126294,0.16369 -0.0448,0.0392 -0.08855,0.0811 -0.121356,0.13406 -0.105833,-0.0159 -0.177447,0.002 -0.261761,0.10759 l -0.01905,0.007 c -0.01376,0.0138 -0.01834,0.0332 -0.01834,0.0572 l 0.0039,0.042 -0.03351,-0.006 0.02081,0.0536 0.0049,0.0113 c -0.0063,0.0109 -0.01834,0.0152 -0.04974,0.018 l -0.01764,0.003 0.02223,-0.049 -0.0011,-3.6e-4 0.0025,-0.004 -0.05856,-0.0222 -0.0025,0.005 c -0.0074,0.0222 -0.04692,0.0522 -0.07867,0.0773 l -0.149931,0.13617 0.11677,-0.0268 0.02187,-0.004 c -0.0039,0.0197 -0.01129,0.0688 -0.01341,0.084 -0.118533,0.0667 -0.427919,0.43638 -0.431094,0.44132 l -0.03845,0.0727 c 0,0 -0.01588,0.0314 -0.02822,0.0564 -0.02258,0.003 -0.06138,0.0215 -0.147109,0.0864 l -0.0018,-0.002 -0.0056,-0.0187 -0.02293,-0.0166 c -0.05362,-0.009 -0.06632,0.0332 -0.07232,0.055 l -0.03457,0.115 c -0.03281,0.11783 -0.04163,0.14288 -0.184856,0.21661 l -0.0085,-0.11183 -0.05045,0.10195 c 0,0 -0.102658,0.18415 -0.115711,0.20708 l -0.115005,-0.0871 c -0.02787,0.0173 -0.03634,0.0455 -0.04269,0.0825 l -0.0314,-0.005 -0.0071,0.0229 -0.01411,-0.003 -0.01058,0.0201 -0.09384,0.15875 -0.08925,0.18062 -0.102306,0.12983 c -0.100541,0.11888 -0.202494,0.24376 -0.231422,0.40816 -0.117475,0.0346 -0.231775,0.46249 -0.585258,1.09114 l -0.210609,0.35913 -0.01376,0.0843 v 0.006 c 0,0.0261 -0.0028,0.0356 -0.04445,0.0571 l -0.01129,0.006 -0.0039,0.0124 c -0.03704,0.12065 -0.06526,0.18591 -0.144992,0.27869 l -0.01058,0.024 -0.01235,0.0395 0.01235,0.004 c -0.01235,0.0226 -0.06879,0.121 -0.06879,0.121 l -0.0053,0.0328 c 0,0.0324 0.01552,0.06 0.02858,0.084 l 0.02364,0.0497 0.02822,0.01 0.01446,0.003 c -0.04621,0.1009 -0.09207,0.20602 -0.09207,0.28646 0,0.0236 0.0042,0.0462 0.01305,0.0656 0.01305,0.0282 0.04092,0.0437 0.07197,0.0564 -0.03034,0.0723 -0.07937,0.19403 -0.08043,0.28328 l 0.02117,-0.006 -0.01517,0.0515 0.03245,0.0148 0.06562,0.012 c -0.0032,0.024 -0.01905,0.13794 -0.01905,0.13794 l 0.01341,0.003 -0.01517,0.037 c 0,0.0275 0.0088,0.0684 0.02258,0.12453 l -0.02364,-0.013 -0.05221,0.22331 -0.01764,0.0691 -0.0018,0.26952 c -0.0046,0.06 -0.0381,0.12277 -0.07056,0.17886 l -0.0049,0.007 -0.0011,0.0325 0.01658,0.0229 0.0081,0.0279 0.0078,0.0303 -0.0078,0.003 -0.01588,0.0526 0.07197,-0.0159 c 0.0568,-0.0134 0.147814,0.12383 0.19685,0.19756 l 0.03281,0.0483 -0.0011,0.002 -0.04692,0.0346 0.0046,0.01 -3.53e-4,0.005 0.01976,0.0325 -0.0021,0.0286 0.01411,0.005 -0.01411,0.10831 -3.53e-4,0.001 h 3.53e-4 l -0.0018,0.0116 0.06315,0.004 -0.01305,0.008 -0.01517,-0.002 0.03704,0.0681 0.01199,0.006 -0.0021,0.0145 0.01446,0.0377 c 0.08043,0.0847 0.112537,0.14005 0.112537,0.22154 0,0.0632 -0.01764,0.13617 -0.04516,0.24659 l -0.0056,0.0243 -0.01376,0.0155 -0.01517,0.0208 -0.0011,-7.1e-4 -0.0011,0.003 c -0.02293,0.0293 -0.07832,0.1016 -0.07832,0.1016 l -0.0035,0.0127 -0.0042,0.0466 0.02787,0.0109 c 0.05433,0.01 0.07761,-0.0469 0.0949,-0.0935 l 0.03916,0.0282 0.01094,0.03 0.01411,-0.01 c 0,0 0.02681,-0.0106 0.05151,-0.0198 l -0.02575,0.0843 -0.0049,0.0169 0.02505,0.012 c 0.0039,0.006 0.01341,0.031 0.01341,0.0614 0,0.0236 -0.0053,0.0508 -0.02152,0.078 l -0.0028,0.024 c 0,0.0409 0.02787,0.09 0.06703,0.1524 l 0.02328,0.0388 -0.0092,-7.1e-4 -0.01058,0.0342 0.09666,0.0173 0.01094,-0.0201 0.03704,-0.067 0.02646,0.007 c 0,0 0.07937,0.01 0.10407,0.0123 l 0.0078,0.0565 0.02681,-0.001 0.169333,0.001 0.0067,-0.0226 c 0.0194,-0.0635 0.03775,-0.0776 0.08255,-0.10619 l 0.03845,-7e-4 c 0.02752,-0.004 0.03351,-0.003 0.04269,0.009 l 0.0078,0.01 0.0053,0.001 3.53e-4,10e-4 c 0,0.03 -0.03528,0.10654 -0.04657,0.1337 l -0.0314,0.0716 0.03986,0.006 0.04621,0.008 0.0088,-0.0219 0.01482,0.003 0.01023,-0.0198 0.07585,-0.12277 0.0085,-0.0162 0.0014,-0.004 0.02011,0.0106 h 0.0042 l -0.0025,0.0229 -0.0254,0.1397 -0.02222,0.12594 0.03351,0.097 0.04198,0.1076 -0.0018,0.003 -0.01235,0.037 0.02011,0.007 -0.01411,0.0455 0.04092,-0.0123 0.07691,-0.0176 c 0.03704,-0.004 0.12065,-0.002 0.135114,0.0377 l 0.006,0.0173 0.07408,0.0127 0.0194,-0.0243 c 0.01023,-0.0321 0.07161,-0.0247 0.09031,-0.0215 0,0 0.03175,0.0113 0.05151,0.0183 l -0.0092,0.03 0.03563,0.006 c 0.02999,0.006 0.04763,-0.0116 0.05891,-0.0339 0.01834,0.0279 0.04516,0.0529 0.08749,0.0709 l 0.03493,0.0317 0.04198,0.0392 c 0.10407,0.0427 0.209197,0.0183 0.30092,-0.003 l 0.110772,-0.0233 0.05009,0.084 0.01976,-0.0695 c 0.01729,-0.0607 0.08502,-0.0868 0.208139,-0.0843 0.04727,0.008 0.08749,-0.0565 0.138994,-0.14711 l 0.01623,-0.0272 c 0.01623,-0.004 0.06809,-0.0134 0.08819,-0.0176 l -0.0053,0.0155 0.03739,0.005 c -0.01552,0.0374 -0.04128,0.0991 -0.04128,0.0991 -0.03104,0.0635 -0.06315,0.12947 -0.07232,0.21837 l -0.0032,0.0296 0.07726,0.013 0.0081,-0.0265 c 0.01658,-0.0533 0.06068,-0.11148 0.102658,-0.1524 l 0.006,0.002 0.01023,0.001 0.03669,0.073 0.01658,0.037 0.05715,0.008 0.0956,-0.15557 0.0049,-0.0148 c 0.02152,-0.004 0.09455,-0.0166 0.09455,-0.0166 l 0.100541,-0.0169 0.202495,0.0116 0.09701,-0.0342 c 0.05009,-0.0247 0.0829,-0.0392 0.105833,-0.0222 l 0.03598,0.0257 0.01587,-0.0522 c 0.02787,-0.01 0.06138,-0.0275 0.09313,-0.0501 l -0.01588,0.0293 0.109714,0.019 0.0053,-0.0159 0.03175,0.0131 0.06174,0.0286 0.0085,-0.036 0.01517,-0.0497 -0.03104,-0.012 -0.0018,-0.025 0.0014,-0.003 0.01623,0.009 0.05821,0.0363 0.0095,-0.0406 c 0.01058,-0.0356 0.0448,-0.0649 0.09419,-0.0815 0.05609,-0.019 0.1143,-0.0152 0.135467,-3.5e-4 l 0.03563,0.0257 0.01341,-0.0423 c 0.01834,-0.0614 0.138641,-0.0974 0.201436,-0.11007 l 0.0254,-0.005 0.316089,-0.0734 0.05151,-0.006 0.0078,-0.0205 0.01552,-0.0522 -0.0046,-0.001 0.01341,-0.0141 c 0.05115,-0.004 0.254706,-0.024 0.308328,-0.0452 l 0.01446,-0.006 0.01623,-0.0533 c 0.02752,-0.005 0.05997,-0.0106 0.08925,-0.0148 0.05962,0.0116 0.162984,-0.0716 0.196497,-0.14394 l 0.0028,-7e-4 c 0.02681,0.0183 0.04621,-0.0102 0.08149,-0.0642 l 0.01411,-0.0201 -7.05e-4,0.008 0.582789,-0.30163 0.03422,-0.025 h 0.03669 l 0.0053,-0.0254 c 0.01658,-0.084 0.05609,-0.14429 0.115005,-0.17428 0.05539,-0.031 0.124531,-0.03 0.190148,0.004 l 0.04904,0.0233 -0.0053,-0.055 c -0.0025,-0.0296 0.0095,-0.23742 0.02364,-0.26705 0.02469,-0.0282 0.05609,-0.0332 0.09631,-0.0388 0.04092,-0.007 0.08749,-0.0134 0.127353,-0.054 l 0.03845,-0.054 0.03528,-0.0504 0.09313,-0.0385 c 0.0508,-0.0159 0.106539,-0.0321 0.14605,-0.0776 0.04551,-0.0547 0.06209,-0.12629 0.07761,-0.19579 l 0.04445,-0.13617 c 0.04551,-0.0843 0.402872,-0.28716 0.467078,-0.26353 l 0.03634,0.0127 0.0025,-0.019 c 0.07444,-0.0434 0.339372,-0.70696 0.343252,-0.71437 l 0.159809,0.0208 0.0049,-0.0183 v -0.005 c 0.160161,-0.0272 0.277988,-0.15346 0.392641,-0.28223 0.10407,-0.11641 0.167922,-0.3757 0.290689,-0.39934 l 0.02364,-0.007 0.0018,-0.025 0.0011,-0.019 c 0,-0.0445 -0.01235,-0.0744 -0.03739,-0.0928 -0.04798,-0.0349 -0.118533,-0.007 -0.175683,0.0159 l -0.04621,0.018 -0.0021,0.0208 c -0.111478,0.0152 -0.219075,0.0579 -0.305505,0.10407 l 7.05e-4,-0.007 -0.03704,0.003 c -0.03845,0.004 -0.07444,0.0328 -0.105127,0.0586 l -0.04163,0.0321 -0.108303,0.043 -0.0046,-0.009 c -0.0254,-0.0113 -0.0441,0.009 -0.05786,0.024 l -0.0099,0.009 c -0.161925,0.13687 -0.54222,0.42615 -0.678745,0.43356 l -0.02611,10e-4 -0.0028,0.0226 h -0.02787 l -0.01411,0.0226 c -0.01341,0.0155 -0.101247,0.0286 -0.15875,0.0268 h -0.02011 l -0.01094,0.0233 c -0.02681,0.0536 -0.408163,0.28751 -0.472016,0.27517 -0.04727,-3.6e-4 -0.0568,0.0194 -0.05997,0.0381 l -0.06668,-0.0194 -0.01658,0.0321 c -0.0042,0.0363 -0.07867,0.10724 -0.507294,0.20919 l 0.0014,-0.006 -0.04868,-0.007 -0.02716,0.002 -0.01305,0.0233 c -0.0095,0.0162 -0.07832,0.0434 -0.10795,0.055 l -0.06738,0.0286 3.53e-4,0.008 c -0.02328,0.002 -0.05503,0.0201 -0.111831,0.0579 -0.04762,0.03 -0.119239,0.0762 -0.146402,0.079 l -0.02223,0.002 -0.0042,0.0162 c -0.01905,0 -0.04974,0.009 -0.113947,0.0289 l -0.129469,0.036 -0.0085,0.019 c -0.126647,-0.0106 -0.306211,0.0459 -0.418042,0.11078 l -0.0021,-0.007 -0.04339,-0.0176 -0.01023,-7.1e-4 -0.03493,-0.006 -0.02011,0.0236 -0.05821,0.007 -0.03704,0.001 -0.04198,-0.0603 -0.02716,0.048 c -0.0127,0.0187 -0.10795,0.0437 -0.159456,0.0572 0,0 -0.09066,0.03 -0.116064,0.0381 l -0.03175,-0.006 -0.01058,-0.0187 c -0.02575,-0.0127 -0.04833,0.008 -0.07902,0.0459 -0.02081,-0.0102 -0.04833,-0.0243 -0.04833,-0.0243 l -0.02716,-0.006 -0.02752,-0.005 -0.0095,0.0261 c -0.0053,0.0169 -0.04092,0.0219 -0.06667,0.0258 l -0.04974,0.008 -0.0032,0.013 c -0.02646,-0.007 -0.09102,-0.0229 -0.09102,-0.0229 l -0.2159,0.0473 -0.118886,-0.009 -0.149225,-0.0102 c -0.280105,-0.0617 -0.622653,-0.33691 -0.67945,-0.66993 -0.0088,-0.0494 -0.01164,-0.0981 -0.01164,-0.15099 0,-0.0801 0.0078,-0.16263 0.01764,-0.25259 l 0.0018,-0.0159 0.006,-0.10936 c 0.0021,-0.0727 0.0046,-0.14394 0.02716,-0.22578 l 0.09419,-0.23036 0.05891,-0.12877 0.06421,-0.2099 0.08961,-0.17463 0.01341,-0.12982 0.0025,-0.0286 0.02223,-0.0914 c 0,0 0.0074,-0.0279 0.01411,-0.0536 l 0.0018,0.0229 c 0,0.0243 -0.0018,0.0589 -0.0085,0.11006 l -0.0046,0.0307 0.07444,0.0124 0.0095,-0.0212 0.05115,-0.10653 0.09455,-0.0907 0.184855,-0.23071 0.118886,-0.18274 c 0.07303,-0.1203 0.156986,-0.25612 0.236009,-0.30551 l 0.0078,-0.005 0.0011,-0.002 0.01552,0.009 0.05891,0.0339 0.0088,-0.0392 c 0.0074,-0.0233 0.0099,-0.0462 0.0099,-0.0691 0,-0.0374 -0.0071,-0.0737 -0.01411,-0.11042 l -0.0025,-0.0159 c 0.01764,0.0247 0.04092,0.0515 0.08396,0.049 0.09878,-0.006 0.405694,-0.28787 0.49283,-0.40181 l 0.03387,0.024 0.04445,0.0462 0.02716,-0.0399 0.05927,-0.0759 c 0.04163,-0.0416 0.08925,-0.0956 0.115005,-0.16792 0.0187,-0.005 0.09525,-0.0229 0.132997,-0.0317 0.01058,0.0236 0.02822,0.0434 0.04445,0.0557 l -0.01023,0.0328 0.04515,0.0134 0.03669,0.008 0.01305,-0.0427 -0.0025,7.1e-4 c 0.02222,-0.0141 0.03493,-0.0409 0.03986,-0.061 l 0.01058,-0.0318 0.06668,-0.0617 0.0074,-0.006 0.02822,0.01 0.0095,0.001 c 0.02222,0.006 0.103364,0.0942 0.119592,0.12842 l 0.03457,0.0762 0.02399,-0.0804 c 0.01094,-0.0353 0.03034,-0.0579 0.06068,-0.0702 0.04621,-0.0187 0.110067,-0.009 0.14605,0.0109 l 0.01764,0.009 0.02081,-0.0162 c 0.0254,-0.0198 0.256469,-0.0893 0.300214,-0.0931 l 0.189088,0.012 c 0.0755,0.0113 0.154517,0.0226 0.238125,0.007 0.107598,-0.0201 0.213431,-0.0829 0.31362,-0.14429 l 0.167217,-0.0938 0.232127,-0.0762 0.236361,-0.0804 c 0.155223,-0.0741 0.312209,-0.15381 0.432859,-0.24201 l 0.258586,-0.22295 0.09384,-0.0586 c 0.06491,-0.0367 0.130175,-0.0748 0.1905,-0.14182 0.07338,-0.084 0.105128,-0.19121 0.135466,-0.29528 l 0.06209,-0.1845 0.07867,-0.12806 c 0.06103,-0.16721 0.09208,-0.33267 0.09208,-0.49953 0,-0.13018 -0.0187,-0.26599 -0.05539,-0.40464 l -0.04022,-0.13194 -0.121708,-0.15875 c -0.106186,-0.12629 -0.206023,-0.24412 -0.206023,-0.42086 0,-0.0268 0.0025,-0.0554 0.0071,-0.0854 l 0.0063,-0.0363 -0.206022,-7e-4 -0.0074,0.024 -0.0078,-0.0141 c -0.08079,-0.0709 -0.08361,-0.11112 -0.08819,-0.1912 l -0.01094,-0.1076 0.02187,-0.0744 -0.07761,-0.0134 -0.01341,0.0265 -0.006,0.0187 -0.05115,-0.009 0.02787,0.0621 -0.0063,0.002 c -0.04833,0.002 -0.124884,-0.0441 -0.134409,-0.0681 l -0.0063,-0.0162 -0.06385,-0.0113 -0.0095,0.0264 -0.01094,0.0198 -0.0067,-0.002 -0.02752,-0.004 -0.0028,0.008 c -0.03493,-0.0586 -0.0628,-0.10336 -0.08678,-0.11888 l -0.0081,-0.002 -0.01094,-0.0205 c -0.02505,-0.0159 -0.08925,0.0423 -0.08925,0.0423 -0.219075,-0.16439 -0.276578,-0.24941 -0.276578,-0.24941"
       style="fill:#2c71bc;fill-opacity:1;fill-rule:nonzero;stroke:none;stroke-width:0.352778"
       id="path725" />
  </g>
</svg>
